<?xml version="1.0" encoding="utf-8"?>
<!-- Generator: Adobe Illustrator 22.1.0, SVG Export Plug-In . SVG Version: 6.00 Build 0)  -->
<svg version="1.1" id="Layer_1" xmlns="http://www.w3.org/2000/svg" xmlns:xlink="http://www.w3.org/1999/xlink" x="0px" y="0px"
	 width="18px" height="18px" viewBox="0 0 18 18" style="enable-background:new 0 0 18 18;" xml:space="preserve">
<style type="text/css">
	.st0{fill:#00549A;}
</style>
<path class="st0" d="M9,0c4.9-0.1,8.9,3.8,9,8.7c0,0.1,0,0.2,0,0.3c0.1,4.9-3.8,8.9-8.7,9c-0.1,0-0.2,0-0.3,0
	c-4.9,0.1-8.9-3.8-9-8.7C0,9.2,0,9.1,0,9c-0.1-4.9,3.8-8.9,8.7-9C8.8,0,8.9,0,9,0z M9,16.4c4,0.1,7.3-3.1,7.4-7.1c0-0.1,0-0.2,0-0.3
	c0.1-4-3.1-7.3-7.1-7.4c-0.1,0-0.2,0-0.3,0C5,1.5,1.8,4.7,1.7,8.7c0,0.1,0,0.2,0,0.3c-0.1,4,3,7.3,7,7.4C8.8,16.4,8.9,16.4,9,16.4z
	 M10.1,5H8l-2.9,7.8h1.8L7.5,11h2.9l0.7,1.9l1.8-0.4L10.1,5z M7.9,9.6l1-3.1L10,9.6H7.9z"/>
<g>
</g>
<g>
</g>
<g>
</g>
<g>
</g>
<g>
</g>
<g>
</g>
</svg>
