<?xml version="1.0" encoding="utf-8"?>
<!-- Generator: Adobe Illustrator 22.1.0, SVG Export Plug-In . SVG Version: 6.00 Build 0)  -->
<svg version="1.1" id="Layer_1" xmlns="http://www.w3.org/2000/svg" xmlns:xlink="http://www.w3.org/1999/xlink" x="0px" y="0px"
	 width="18px" height="18px" viewBox="0 0 18 18" style="enable-background:new 0 0 18 18;" xml:space="preserve">
<style type="text/css">
	.st0{fill:#00549A;}
</style>
<path class="st0" d="M9,0c5,0,9,4,9,9s-4,9-9,9s-9-4-9-9S4,0,9,0z M9,16.4c4.1,0,7.4-3.3,7.4-7.4c0-4.1-3.3-7.4-7.4-7.4
	C4.9,1.6,1.6,4.9,1.6,9C1.6,13.1,4.9,16.4,9,16.4z M11.6,10.9c-0.6,0.4-1.2,0.6-1.9,0.6c-1.3,0-2.2-1-2.2-2.6s0.8-2.6,2.1-2.6
	c0.6,0,1.3,0.2,1.8,0.6l0.2-1.5C11,5,10.2,4.8,9.4,4.8c-2.1,0-3.8,1.6-3.8,3.7c0,0.1,0,0.3,0,0.4c-0.2,2,1.3,3.8,3.3,4
	c0.2,0,0.3,0,0.5,0c0.8,0,1.6-0.2,2.3-0.6L11.6,10.9z"/>
<g>
</g>
<g>
</g>
<g>
</g>
<g>
</g>
<g>
</g>
<g>
</g>
</svg>
