<?xml version="1.0" encoding="UTF-8"?>
<!-- Generator: Adobe Illustrator 18.1.1, SVG Export Plug-In . SVG Version: 6.00 Build 0)  -->
<!DOCTYPE svg PUBLIC "-//W3C//DTD SVG 1.1//EN" "http://www.w3.org/Graphics/SVG/1.1/DTD/svg11.dtd">
<svg version="1.1" id="Layer_1" xmlns="http://www.w3.org/2000/svg" xmlns:xlink="http://www.w3.org/1999/xlink" x="0px" y="0px" width="24px" height="24px" viewBox="-11 12 24 24" enable-background="new -11 12 24 24" xml:space="preserve">
<path fill="#252A32" d="M5.4,21.3c-2,2.4-3.9,4.9-6.2,7.1c1.9-3.4,4.8-6.2,6.8-9.5c0.3-0.5-1.1-1.2-1.4-0.9  c-0.4,0.4-0.8,0.8-1.2,1.2c0.2-0.5-1.1-1.1-1.4-0.8C1.7,18.7,1.3,19,1,19.3c0.2-0.3,0.5-0.6,0.7-0.9c0.3-0.5-1-1.2-1.4-0.9  c-0.6,0.5-1.1,1-1.6,1.5c0.7-1,1.4-2,2-3c0.3-0.5-1-1.2-1.4-0.9c-2.6,2-4.7,4.6-7.1,6.7c1.2-1.8,2.7-3.7,3.7-5.4  c0.3-0.5-1.2-1.3-1.5-0.8c-1.7,2.6-4.3,5.5-5.3,8.4c-0.2,0.6,1,1.1,1.4,0.9c1.4-0.8,2.7-1.8,3.9-3c-1.3,1.7-2.5,3.4-3.6,5.2  c-0.3,0.5,0.9,1.1,1.4,0.9c-0.4,0.5-0.7,1.1-1.1,1.6c-0.3,0.5,1,1.1,1.4,0.9c0.1-0.1,0.2-0.1,0.3-0.2c-0.3,0.5-0.6,0.9-0.9,1.4  c-0.3,0.5,1.1,1.2,1.4,0.9c1.3-1.3,2.5-2.5,3.8-3.7c-0.2,0.6-0.5,1.2-0.6,1.8c-0.2,0.5,1,1.2,1.4,0.9c0.3-0.2,0.6-0.4,0.9-0.7  c-0.2,0.3-0.4,0.7-0.6,1c-0.3,0.5,1.1,1.3,1.5,0.8c1.9-2.2,3.5-4.7,6-6.3c0.5-0.3-0.6-1.1-1.2-1c0.8-1.1,1.6-2.3,2.4-3.4  C7.3,21.7,5.8,20.9,5.4,21.3z"/>
</svg>