<?xml version="1.0" encoding="utf-8"?>
<!-- Generator: Adobe Illustrator 22.1.0, SVG Export Plug-In . SVG Version: 6.00 Build 0)  -->
<svg version="1.1" id="Layer_1" xmlns="http://www.w3.org/2000/svg" xmlns:xlink="http://www.w3.org/1999/xlink" x="0px" y="0px"
	 width="18px" height="18px" viewBox="0 0 18 18" style="enable-background:new 0 0 18 18;" xml:space="preserve">
<style type="text/css">
	.st0{fill:#00549A;}
</style>
<path class="st0" d="M9,0c5,0,9,4,9,9s-4,9-9,9s-9-4-9-9S4,0,9,0z M9,16.4c4.1,0,7.4-3.3,7.4-7.4c0-4.1-3.3-7.4-7.4-7.4
	C4.9,1.6,1.6,4.9,1.6,9C1.6,13.1,4.9,16.4,9,16.4z M8.5,5H5.9v7.8h2.6c2.7,0,4.2-1.7,4.2-3.9S11.3,5,8.5,5z M8.5,11.3H7.7V6.4h0.9
	c1.2-0.1,2.3,0.8,2.4,2.1c0,0.1,0,0.3,0,0.4c0.1,1.3-0.9,2.3-2.1,2.4C8.7,11.3,8.6,11.3,8.5,11.3z"/>
<g>
</g>
<g>
</g>
<g>
</g>
<g>
</g>
<g>
</g>
<g>
</g>
</svg>
