<?xml version="1.0" encoding="utf-8"?>
<!-- Generator: Adobe Illustrator 22.1.0, SVG Export Plug-In . SVG Version: 6.00 Build 0)  -->
<svg version="1.1" id="Layer_1" xmlns="http://www.w3.org/2000/svg" xmlns:xlink="http://www.w3.org/1999/xlink" x="0px" y="0px"
	 width="18px" height="18px" viewBox="0 0 18 18" style="enable-background:new 0 0 18 18;" xml:space="preserve">
<style type="text/css">
	.st0{fill:#00549A;}
</style>
<path class="st0" d="M9,0c5,0,9,4,9,9s-4,9-9,9s-9-4-9-9S4,0,9,0z M9,16.4c4.1,0,7.4-3.3,7.4-7.4c0-4.1-3.3-7.4-7.4-7.4
	S1.6,4.9,1.6,9C1.6,13.1,4.9,16.4,9,16.4z M10.7,8.7c0.7-0.3,1.2-0.9,1.1-1.7c0-1.3-1-2-2.7-2H6.3v7.8H9c1.9,0,3.1-0.7,3.1-2.3
	C12.1,9.6,11.5,8.9,10.7,8.7z M8.8,8.2H8V6.3h0.9c0.8,0,1.2,0.3,1.2,0.9C10.1,7.8,9.7,8.2,8.8,8.2z M8.9,11.4h-1V9.3h0.9
	c0.9,0,1.5,0.4,1.5,1.1S9.9,11.4,8.9,11.4z"/>
<g>
</g>
<g>
</g>
<g>
</g>
<g>
</g>
<g>
</g>
<g>
</g>
</svg>
