<?xml version="1.0" encoding="UTF-8"?>
<!-- Generator: Adobe Illustrator 17.1.0, SVG Export Plug-In . SVG Version: 6.00 Build 0)  -->
<!DOCTYPE svg PUBLIC "-//W3C//DTD SVG 1.1//EN" "http://www.w3.org/Graphics/SVG/1.1/DTD/svg11.dtd">
<svg version="1.1" id="Layer_1" xmlns="http://www.w3.org/2000/svg" xmlns:xlink="http://www.w3.org/1999/xlink" x="0px" y="0px" width="278px" height="60px" viewBox="0 0 278 60" enable-background="new 0 0 278 60" xml:space="preserve">
<circle fill="#252A32" cx="26.1" cy="18.4" r="9"/>
<polygon fill="#252A32" points="0,20.9 0,45.2 26.1,60 52.2,45.2 52.2,20.9 26.1,35.7 "/>
<path fill="#252A32" d="M3.7,18.1C7.5,9.4,16.1,3.3,26.1,3.3c10,0,18.6,6.1,22.4,14.7l2.2-1.3l0.7-0.4c-1.4-3-3.3-5.8-5.7-8.2  C40.5,2.9,33.5,0,26.1,0C18.7,0,11.8,2.9,6.5,8.1c-2.4,2.4-4.4,5.3-5.7,8.3l0.5,0.3L3.7,18.1z"/>
<g>
	<polygon fill="#252A32" points="81.5,31.6 90.7,8.2 86,8.2 78.9,27.1 71.8,8.2 67.2,8.2 76.4,31.6  "/>
	<rect x="90.5" y="14.7" fill="#252A32" width="3.7" height="17"/>
	<path fill="#252A32" d="M100.3,19.3c0-1.2,1.2-2.1,3.1-2.1c2.1,0,4,0.9,5,2l1.5-2.6c-1.5-1.3-3.7-2.4-6.6-2.4   c-4.3,0-6.7,2.4-6.7,5.1c0,6.5,10.2,4.1,10.2,7.5c0,1.3-1.2,2.2-3.4,2.2c-2.2,0-4.5-1.1-5.7-2.4l-1.7,2.6c1.8,1.7,4.3,2.7,7.3,2.7   c4.6,0,7-2.3,7-5.3C110.6,20,100.3,22.3,100.3,19.3z"/>
	<path fill="#252A32" d="M115,12.6c1.3,0,2.3-1,2.3-2.3c0-1.3-1-2.3-2.3-2.3s-2.3,1-2.3,2.3C112.7,11.6,113.7,12.6,115,12.6z"/>
	<rect x="113.1" y="14.7" fill="#252A32" width="3.7" height="17"/>
	<path fill="#252A32" d="M127.6,14.2c-5.4,0-8.7,4-8.7,8.9c0,4.9,3.3,8.9,8.7,8.9c5.4,0,8.7-4.1,8.7-8.9   C136.3,18.2,133,14.2,127.6,14.2z M127.6,28.8c-3.1,0-4.9-2.6-4.9-5.7c0-3,1.8-5.6,4.9-5.6c3.2,0,4.9,2.6,4.9,5.6   C132.5,26.2,130.7,28.8,127.6,28.8z"/>
	<path fill="#252A32" d="M142,19.8c0.9-1.1,2.5-2.2,4.3-2.2c2.1,0,3.4,0.8,3.4,3.5v10.6h3.7v-12c0-3.5-1.8-5.4-5.5-5.4   c-2.7,0-4.9,1.4-6,2.7v-2.3h-3.7v17h3.7L142,19.8L142,19.8z"/>
	<rect x="156.6" y="8.2" fill="#252A32" width="3.7" height="23.5"/>
	<path fill="#252A32" d="M171.6,29c-3.2,0-5.1-2.1-5.4-4.7h13v-0.9c0-5.3-3.2-9.2-8.3-9.2c-5,0-8.6,4-8.6,8.9c0,5.4,3.7,8.9,8.9,8.9   c2.7,0,5.1-0.9,6.9-2.5l-1.7-2.4C175.2,28.4,173.3,29,171.6,29z M170.9,17.3c3.3,0,4.7,2.5,4.8,4.5h-9.5   C166.3,19.7,167.8,17.3,170.9,17.3z"/>
	<path fill="#252A32" d="M192.2,29.8v1.9h0v0h3.7V20.4c0-4.5-3.3-6.1-7.1-6.1c-2.7,0-5.2,0.8-7.1,2.7l1.5,2.6c1.4-1.5,3.1-2.2,5-2.2   c2.3,0,4,1.2,4,3.2v2.5c-1.3-1.4-3.2-2.2-5.5-2.2c-2.8,0-5.9,1.6-5.9,5.6c0,3.7,3.1,5.6,5.9,5.6C188.9,32.1,190.9,31.3,192.2,29.8z    M184.5,26.5c0-1.8,1.6-3.1,3.6-3.1c1.6,0,3.2,0.6,4,1.8v2.6c-0.9,1.2-2.5,1.8-4,1.8C186.1,29.5,184.5,28.3,184.5,26.5z"/>
	<path fill="#252A32" d="M202.6,20.1c0.7-1.2,2.8-2.3,4.4-2.3c0.5,0,0.8,0,1.1,0.1v-3.7c-2.2,0-4.2,1.3-5.5,2.9v-2.5h-3.7v17h3.7   V20.1z"/>
	<path fill="#252A32" d="M221.4,31.6h3.7v-12c0-3.5-1.8-5.4-5.5-5.4c-2.7,0-4.9,1.4-6,2.7v-2.3H210v17h3.7V19.8   c0.9-1.1,2.5-2.2,4.3-2.2c2.1,0,3.4,0.8,3.4,3.5L221.4,31.6L221.4,31.6z"/>
	<path fill="#252A32" d="M230.1,12.6c1.3,0,2.3-1,2.3-2.3c0-1.3-1-2.3-2.3-2.3c-1.3,0-2.3,1-2.3,2.3   C227.8,11.6,228.8,12.6,230.1,12.6z"/>
	<rect x="228.2" y="14.7" fill="#252A32" width="3.7" height="17"/>
	<path fill="#252A32" d="M244.7,14.2c-2.7,0-4.9,1.4-6,2.7v-2.3H235v17h3.7V19.8c0.9-1.1,2.5-2.2,4.3-2.2c2.1,0,3.4,0.8,3.4,3.5   v10.6h3.7v-12C250.1,16.2,248.3,14.2,244.7,14.2z"/>
	<path fill="#252A32" d="M265.2,17c-1.4-1.8-3.3-2.8-5.4-2.8c-4.4,0-7.5,3.2-7.5,8.7c0,5.6,3.2,8.7,7.5,8.7c2.2,0,4.1-1.1,5.4-2.8   v1.9c0,3.6-2.6,4.7-5,4.7c-2.2,0-4-0.6-5.4-2.2L253,36c2.1,1.9,4.2,2.5,7.1,2.5c4.1,0,8.7-1.7,8.7-7.8V14.7h-3.7L265.2,17L265.2,17   L265.2,17z M265.2,26.1c-0.8,1.2-2.6,2.2-4.3,2.2c-2.9,0-4.8-2.1-4.8-5.4c0-3.3,1.9-5.4,4.8-5.4c1.7,0,3.5,1,4.3,2.2V26.1z"/>
	<path fill="#252A32" d="M274,8c-1.8,0-3.3,1.5-3.3,3.3v0c0,1.8,1.4,3.3,3.2,3.3c1.8,0,3.3-1.5,3.3-3.3v0C277.3,9.5,275.9,8,274,8z    M276.9,11.3c0,1.6-1.3,2.9-2.9,2.9c-1.7,0-2.9-1.3-2.9-2.9v0c0-1.6,1.3-2.9,2.9-2.9C275.7,8.3,276.9,9.6,276.9,11.3L276.9,11.3   L276.9,11.3z"/>
	<path fill="#252A32" d="M275.6,10.6L275.6,10.6c0-0.3-0.1-0.6-0.3-0.7c-0.2-0.2-0.6-0.4-1-0.4h-1.5v3.4h0.6v-1.2h0.7h0l0.8,1.2h0.8   l-0.9-1.3C275.2,11.5,275.6,11.1,275.6,10.6z M274.2,11.1l-0.8,0v-1.1h0.8c0.4,0,0.7,0.2,0.7,0.5v0   C274.9,10.9,274.6,11.1,274.2,11.1z"/>
	<path fill="#252A32" d="M73.8,54.1c0.2,0.1,0.5,0.1,0.6,0.1c0.5,0,0.9-0.2,1.1-0.8l0.5-1.1l-3.2-7.7h1.3l2.5,6.2l2.5-6.2h1.3   l-3.8,9.1c-0.5,1.1-1.2,1.5-2.2,1.5c-0.3,0-0.6,0-0.8-0.1L73.8,54.1z"/>
	<path fill="#252A32" d="M81.3,48.3c0-2.2,1.4-4,3.8-4c2.3,0,3.8,1.8,3.8,4c0,2.2-1.4,4-3.8,4C82.7,52.3,81.3,50.6,81.3,48.3z    M87.6,48.3c0-1.5-0.9-2.9-2.5-2.9c-1.6,0-2.5,1.4-2.5,2.9c0,1.6,0.9,2.9,2.5,2.9C86.7,51.3,87.6,49.9,87.6,48.3z"/>
	<path fill="#252A32" d="M95.8,52.1v-1.1c-0.6,0.7-1.6,1.3-2.7,1.3c-1.6,0-2.4-0.8-2.4-2.4v-5.4h1.2v5c0,1.3,0.7,1.7,1.7,1.7   c0.9,0,1.8-0.5,2.2-1.2v-5.6H97v7.6H95.8z"/>
	<path fill="#252A32" d="M99.4,52.1v-7.6h1.2v1.2c0.6-0.8,1.5-1.4,2.5-1.4v1.2c-0.1,0-0.3,0-0.4,0c-0.7,0-1.7,0.6-2.1,1.2v5.4H99.4z   "/>
	<path fill="#252A32" d="M108.4,42.7c0-0.4,0.4-0.8,0.8-0.8c0.4,0,0.8,0.4,0.8,0.8c0,0.4-0.3,0.8-0.8,0.8   C108.8,43.5,108.4,43.1,108.4,42.7z M108.6,52.1v-7.6h1.2v7.6H108.6z"/>
	<path fill="#252A32" d="M117.3,52.1v-5c0-1.4-0.7-1.8-1.7-1.8c-0.9,0-1.8,0.6-2.3,1.2v5.5h-1.2v-7.6h1.2v1.1   c0.5-0.6,1.6-1.3,2.7-1.3c1.6,0,2.4,0.8,2.4,2.5v5.3H117.3z"/>
	<path fill="#252A32" d="M120.2,51.1l0.6-0.9c0.5,0.6,1.5,1.1,2.5,1.1c1.2,0,1.8-0.6,1.8-1.3c0-1.8-4.7-0.7-4.7-3.5   c0-1.2,1-2.2,2.8-2.2c1.3,0,2.2,0.5,2.8,1.1l-0.6,0.8c-0.5-0.6-1.3-1-2.3-1c-1,0-1.7,0.5-1.7,1.2c0,1.6,4.7,0.6,4.7,3.5   c0,1.3-1,2.3-3,2.3C122,52.3,121,52,120.2,51.1z"/>
	<path fill="#252A32" d="M127.9,42.7c0-0.4,0.4-0.8,0.8-0.8c0.4,0,0.8,0.4,0.8,0.8c0,0.4-0.3,0.8-0.8,0.8   C128.3,43.5,127.9,43.1,127.9,42.7z M128.2,52.1v-7.6h1.2v7.6H128.2z"/>
	<path fill="#252A32" d="M131.7,54.1l0.6-0.8c0.6,0.7,1.4,1,2.5,1c1.3,0,2.4-0.6,2.4-2.2v-1.1c-0.6,0.8-1.5,1.3-2.6,1.3   c-2,0-3.4-1.5-3.4-3.9c0-2.4,1.4-3.9,3.4-3.9c1,0,1.9,0.5,2.6,1.3v-1.1h1.2V52c0,2.4-1.8,3.2-3.6,3.2   C133.5,55.2,132.6,55,131.7,54.1z M137.2,50v-3.3c-0.4-0.6-1.3-1.2-2.3-1.2c-1.5,0-2.4,1.2-2.4,2.9c0,1.7,0.9,2.9,2.4,2.9   C135.9,51.2,136.8,50.6,137.2,50z"/>
	<path fill="#252A32" d="M145.9,52.1v-5c0-1.4-0.7-1.7-1.7-1.7c-0.9,0-1.8,0.6-2.2,1.2v5.5h-1.2V41.7h1.2v4c0.5-0.6,1.6-1.3,2.7-1.3   c1.6,0,2.4,0.8,2.4,2.4v5.4H145.9z"/>
	<path fill="#252A32" d="M149.6,50.6v-5h-1.3v-1h1.3v-2.1h1.2v2.1h1.5v1h-1.5v4.7c0,0.6,0.2,1,0.8,1c0.3,0,0.6-0.2,0.8-0.3l0.3,0.9   c-0.3,0.3-0.7,0.5-1.4,0.5C150.2,52.3,149.6,51.7,149.6,50.6z"/>
	<path fill="#252A32" d="M157.9,42.7c0-0.4,0.4-0.8,0.8-0.8c0.4,0,0.8,0.4,0.8,0.8c0,0.4-0.3,0.8-0.8,0.8   C158.2,43.5,157.9,43.1,157.9,42.7z M158.1,52.1v-7.6h1.2v7.6H158.1z"/>
	<path fill="#252A32" d="M166.8,52.1v-5c0-1.4-0.7-1.8-1.7-1.8c-0.9,0-1.8,0.6-2.3,1.2v5.5h-1.2v-7.6h1.2v1.1   c0.5-0.6,1.6-1.3,2.7-1.3c1.6,0,2.4,0.8,2.4,2.5v5.3H166.8z"/>
	<path fill="#252A32" d="M170.5,50.6v-5h-1.3v-1h1.3v-2.1h1.2v2.1h1.5v1h-1.5v4.7c0,0.6,0.3,1,0.8,1c0.3,0,0.6-0.2,0.8-0.3l0.3,0.9   c-0.3,0.3-0.7,0.5-1.4,0.5C171.1,52.3,170.5,51.7,170.5,50.6z"/>
	<path fill="#252A32" d="M174.5,48.3c0-2.2,1.4-4,3.8-4c2.3,0,3.8,1.8,3.8,4c0,2.2-1.4,4-3.8,4C175.9,52.3,174.5,50.6,174.5,48.3z    M180.8,48.3c0-1.5-0.9-2.9-2.5-2.9c-1.6,0-2.5,1.4-2.5,2.9c0,1.6,0.9,2.9,2.5,2.9C179.9,51.3,180.8,49.9,180.8,48.3z"/>
	<path fill="#252A32" d="M187.3,51.1l0.6-0.9c0.5,0.6,1.5,1.1,2.5,1.1c1.2,0,1.8-0.6,1.8-1.3c0-1.8-4.7-0.7-4.7-3.5   c0-1.2,1-2.2,2.8-2.2c1.3,0,2.2,0.5,2.8,1.1l-0.6,0.8c-0.4-0.6-1.3-1-2.3-1c-1,0-1.7,0.5-1.7,1.2c0,1.6,4.7,0.6,4.7,3.5   c0,1.3-1,2.3-3,2.3C189.1,52.3,188.1,52,187.3,51.1z"/>
	<path fill="#252A32" d="M194.9,48.3c0-2.2,1.5-4,3.8-4c1.4,0,2.2,0.6,2.8,1.3l-0.8,0.7c-0.5-0.7-1.1-1-1.9-1   c-1.6,0-2.6,1.2-2.6,2.9c0,1.7,1,2.9,2.6,2.9c0.8,0,1.4-0.3,1.9-1l0.8,0.7c-0.6,0.8-1.4,1.3-2.8,1.3   C196.4,52.3,194.9,50.6,194.9,48.3z"/>
	<path fill="#252A32" d="M202.9,42.7c0-0.4,0.4-0.8,0.8-0.8c0.4,0,0.8,0.4,0.8,0.8c0,0.4-0.3,0.8-0.8,0.8   C203.2,43.5,202.9,43.1,202.9,42.7z M203.1,52.1v-7.6h1.2v7.6H203.1z"/>
	<path fill="#252A32" d="M206.2,48.3c0-2.2,1.6-4,3.8-4c2.3,0,3.6,1.8,3.6,4.1v0.3h-6.1c0.1,1.4,1.1,2.6,2.7,2.6   c0.9,0,1.7-0.4,2.4-1l0.6,0.8c-0.8,0.8-1.8,1.2-3,1.2C207.8,52.3,206.2,50.7,206.2,48.3z M209.9,45.3c-1.6,0-2.4,1.4-2.5,2.5h5   C212.4,46.8,211.6,45.3,209.9,45.3z"/>
	<path fill="#252A32" d="M220.6,52.1v-5c0-1.4-0.7-1.8-1.7-1.8c-0.9,0-1.8,0.6-2.2,1.2v5.5h-1.2v-7.6h1.2v1.1   c0.5-0.6,1.6-1.3,2.7-1.3c1.6,0,2.4,0.8,2.4,2.5v5.3H220.6z"/>
	<path fill="#252A32" d="M223.7,48.3c0-2.2,1.5-4,3.8-4c1.4,0,2.2,0.6,2.8,1.3l-0.8,0.7c-0.5-0.7-1.1-1-1.9-1   c-1.6,0-2.6,1.2-2.6,2.9c0,1.7,1,2.9,2.6,2.9c0.8,0,1.4-0.3,1.9-1l0.8,0.7c-0.6,0.8-1.4,1.3-2.8,1.3   C225.2,52.3,223.7,50.6,223.7,48.3z"/>
	<path fill="#252A32" d="M231.5,48.3c0-2.2,1.6-4,3.7-4c2.3,0,3.6,1.8,3.6,4.1v0.3h-6.1c0.1,1.4,1.1,2.6,2.7,2.6   c0.9,0,1.7-0.4,2.4-1l0.6,0.8c-0.8,0.8-1.8,1.2-3,1.2C233.1,52.3,231.5,50.7,231.5,48.3z M235.2,45.3c-1.6,0-2.4,1.4-2.5,2.5h5   C237.7,46.8,237,45.3,235.2,45.3z"/>
</g>
</svg>