<svg version="1.1" width="661px" height="376px" 
	xmlns="http://www.w3.org/2000/svg" xmlns:xlink="http://www.w3.org/1999/xlink" xml:space="preserve">
<path fill="#93986C" d="M209.17,108.148c-62.079,43.264-33.195,119.953-27.16,141.514
	c91.251,76.544,270.88,92.316,350.06,12.154c-5.676-39.047-7.756-81.523,1.725-126.32C455.765,61.266,330.312,51.715,209.17,108.148z"/>
<path fill="#57593F" d="M106.828,75.906l108.684,5.685l6.594,24.102c-37.592,16.977-49.037,54.646-49.34,67.302
	c-0.092,40.602-9.108,69.919,31.563,91.859l-97.046,52.75L106.828,75.906z"/>
<path fill="#BBC289" stroke="#000000" stroke-width="0.9004" d="M303.392,87.311l-19.946,22.248l-5.626,12.019
	l-32.732,25.062l-3.58,23.526l9.462,30.942l-4.092,11.508v15.087L263.5,249.95l-2.557,20.202l18.156,14.832l22.248,8.695l6.648,1.79
	l13.043,11.507l68.534,3.836l16.877-1.278l4.092-13.81l25.572,0.768l12.531-27.618l14.576-2.558l24.293-38.869l-1.279-24.294
	l-10.996-10.74l-2.301-29.408l6.648-14.065l-15.855-31.453l-26.082-10.229l0.255-15.088l-53.702-12.786l-53.957,0.768
	L303.392,87.311z"/>
<path fill="#2D2E20" stroke="#000000" stroke-width="0.9004" d="M305.95,91.403l-18.924,19.69l-6.137,11.764
	l-31.965,26.851l-2.813,22.504l8.439,27.618l-4.348,11.507l0.512,15.344l16.622,22.248l-1.023,18.924l15.599,14.064l27.874,9.974
	l13.043,11.251l7.416,0.256l75.438,2.558l3.324-11.764l24.038-1.022l12.274-28.386l14.321-1.534l22.758-37.08l-0.256-23.782
	l-16.109-15.854l-5.627-14.576l14.832-21.48l-13.553-28.13l-26.339-11.508l-0.512-14.832L383.69,82.963l-49.099,0.768L305.95,91.403z"/>
<path fill="#FEDE58" stroke="#000000" stroke-width="0.9742" stroke-linejoin="round" d="M475.494,193.436
	c0,60.448-49.117,109.45-109.705,109.45c-60.589,0-109.706-49.002-109.706-109.45c0-60.447,49.117-109.449,109.706-109.449
	C426.377,83.987,475.494,132.989,475.494,193.436L475.494,193.436z"/>
<path fill="#FF9900" d="M340.459,127.548l5.063-35.08l16.997,30.017h5.787l17.359-29.655l4.34,33.634l4.339,2.893
	l28.933-21.698l-9.403,33.271l3.978,4.701l33.272-9.403l-20.614,28.209l1.809,3.616l35.078,4.701l-31.824,18.806l1.447,5.425
	l28.57,16.636l-33.271,4.702l-1.447,5.063l19.891,27.485l-32.548-8.68l-3.616,3.979l9.041,33.995l-27.848-21.338l-5.424,2.17
	l-3.979,33.995l-17.359-29.655l-6.51,0.361l-16.997,28.57c0,0-3.989-34.621-4.34-34.718l-6.509-1.809l-26.402,22.061l9.403-33.995
	l-3.978-3.978l-33.633,9.765l21.699-28.932l-2.532-3.617l-35.08-5.425l31.102-17.358l-1.085-5.787l-30.378-16.997l34.718-3.979
	l2.532-5.063l-22.061-29.655l34.356,10.85l3.616-2.894l-8.679-34.356l28.571,22.061L340.459,127.548z"/>
<path fill="#FED54D" d="M435.093,193.948c0.007,38.703-31.138,70.082-69.559,70.082s-69.566-31.379-69.56-70.082
	c-0.006-38.703,31.139-70.082,69.56-70.082S435.1,155.244,435.093,193.948L435.093,193.948z"/>
<path fill="#93986C" d="M16.333,72.95l7.276,241.016l85.492,3.638l-1.819-241.925L16.333,72.95z"/>
<path fill="#7B7F59" d="M189.418,131.182l-82.954-55.482l80.402,59.034L189.418,131.182z"/>
<path fill="#93986C" d="M187.204,134.619l-34.88,8.983L106.02,75.755L187.204,134.619z"/>
<path fill="#A0A676" d="M152.757,143.437c-18.19,32.59-12.733,66.089,0,90.949l30.468,16.37
	c-13.794-40.169-17.128-80.338,2.274-115.051L152.757,143.437z"/>
<path fill="#93986C" d="M171.764,194.498c-2.572-1.366-29.57-6.829-29.57-6.829l-34.231,10.584L171.764,194.498z"/>
<path fill="#BBC289" d="M205.02,114.364L165.24,79.068l45.746,31.629L205.02,114.364z"/>
<path fill="#BBC289" d="M152.454,233.931l-43.656,83.066l74.579-66.089L152.454,233.931z"/>
<path fill="#93986C" d="M535.646,138.854c12.672,18.045,23.615,35.387,25.057,62.044
	c-1.672,29.294-15.783,45.054-26.783,59.408C528.621,227.028,524.186,184.962,535.646,138.854z"/>
<path opacity="0.56" fill="none" stroke="#000000" stroke-width="3.6759" enable-background="new    " d="
	M533.586,138.568c-8.176,48.235-6.717,87.234-0.877,121.102"/>
<path fill="#014061" stroke="#000000" stroke-width="0.9565" stroke-linejoin="round" d="M431.519,193.693
	c0,36.52-29.558,66.15-66.077,66.24c-36.52,0.091-66.224-29.393-66.405-65.912c-0.181-36.52,29.229-66.297,65.749-66.568
	c36.519-0.271,66.368,29.065,66.73,65.583"/>
<path fill="#027ABB" stroke="#000000" stroke-width="1.328" stroke-linejoin="round" d="M399.293,193.436
	c0,18.048-14.836,32.691-33.165,32.735c-18.33,0.045-33.238-14.525-33.329-32.573s14.67-32.763,33-32.897
	c18.33-0.134,33.311,14.364,33.492,32.411"/>
<path fill="#6D0095" stroke="#000000" stroke-width="1.3334" stroke-linejoin="round" d="M372.408,194.203
	c0,3.367-2.839,6.099-6.347,6.107c-3.509,0.009-6.361-2.71-6.379-6.077s2.808-6.112,6.315-6.138c3.508-0.024,6.375,2.68,6.41,6.047"/>
<path fill="none" stroke="#FF0000" stroke-width="0.9004" d="M338.428,127.459l-14.321-33.244 M366.045,85.009l-0.511,36.313
	 M407.473,93.193l-14.832,35.29 M442.251,117.741l-26.595,27.107 M466.289,152.52l-32.732,14.321 M473.449,193.436l-37.847,1.023
	 M431.511,221.566l35.29,13.298 M416.167,244.58l25.572,26.084 M393.152,261.97l13.809,30.175 M365.534,266.573l1.534,35.29
	 M338.428,260.436l-14.321,34.267 M314.9,245.092l-25.061,26.084 M299.557,221.054l-33.756,14.832 M292.396,194.459l-36.824,0.511
	 M299.045,167.352l-33.244-14.32 M314.9,143.314l-26.084-26.595"/>
<path fill="#FF1A00" stroke="#000000" stroke-width="0.9004" d="M415.656,190.112l10.484,0.768v5.881l-9.974-0.255v5.114
	l-12.53-7.928l12.275-7.928L415.656,190.112z M391.873,219.264l4.092,14.32l2.813-2.557l7.16,5.882l3.836-3.581l-6.649-6.648
	l3.068-3.324L391.873,219.264z M366.045,230.004l-7.416,12.02l4.604,0.767l-0.256,9.974h5.626v-10.229l4.603,0.256L366.045,230.004z
	 M339.194,219.008l-3.324,14.576l-3.836-2.813l-6.394,6.904l-4.603-4.348c0,0,7.928-7.16,6.904-7.671
	c-1.022-0.512-2.046-2.302-2.046-2.302L339.194,219.008z M305.438,190.623l-0.256,5.882h9.718l0.767,4.858l12.275-7.672
	l-13.81-8.183l0.511,4.347L305.438,190.623z M325.386,149.196l5.881,5.882l4.348-2.813l3.58,14.576l-14.576-3.58l2.813-2.813
	l-6.137-7.16L325.386,149.196z M362.928,133.615v9.702l-4.535-0.512l7.569,13.531l7.992-13.02l-4.913,0.256v-9.192L362.928,133.615z
	 M395.004,152.205l-3.529,16.186l16.316-4.071l-4.523-3.311l6.605-6.603l-4.945-4.775l-6.004,6.951L395.004,152.205z"/>
<text transform="matrix(1 0 0 1 170.1235 32.9543)" font-family="Arial" font-size="18">Fast explosive</text>
<text transform="matrix(1 0 0 1 377.4453 31.5081)" font-family="Arial" font-size="18"> Slow explosive</text>
<text transform="matrix(1 0 0 1 522.1592 30.2346)" font-family="Arial" font-size="18">Tamper/Pusher</text>
<text transform="matrix(1 0 0 1 340.8203 350.6838)" font-family="Arial" font-size="18">Plutonium core</text>
<text transform="matrix(1 0 0 1 162.8901 352.1301)" font-family="Arial" font-size="18">Neutron initiator</text>
<g>
<text transform="matrix(1 0 0 1 542.0801 289.1975)" font-family="Arial" font-size="18">Spherical </text>
<text transform="matrix(1 0 0 1 542.0801 314.1975)" font-family="Arial" font-size="18">shockwave</text>
<text transform="matrix(1 0 0 1 542.0801 339.1975)" font-family="Arial" font-size="18">compresses </text>
<text transform="matrix(1 0 0 1 542.0801 364.1975)" font-family="Arial" font-size="18">core</text>
</g>
<path stroke="#000000" d="M409.938,237.169l6.072-0.473l-14.255-6.528l8.655,13.074L409.938,237.169z M409.938,237.169l120.8,92.664"/>
<path stroke="#000000" d="M370.961,217.954l2.974,5.316l-0.045-15.68l-8.245,13.337L370.961,217.954z M335.8,345.042l35.161-127.088"/>
<path stroke="#000000" d="M360.449,196.206l-0.81,6.038l9.369-12.572l-14.597,5.725L360.449,196.206z M360.449,196.206L181.167,336.677"/>
<path stroke="#000000" d="M298.771,116.52l-5.51,0.613l13.164,5.508l-8.267-11.631L298.771,116.52z M298.771,116.52L206.5,45.334"/>
<path stroke="#000000" d="M354.57,105.005l-2.727-6.639l-2.164,18.344l11.528-14.431L354.57,105.005z M385.168,37.355l-30.598,67.65"/>
<path stroke="#000000" d="M421.754,161.833l0.641-7.102l-10.318,15.178l16.779-7.436L421.754,161.833z M557.834,43.334l-136.08,118.5"/>
</svg>
