<?xml version="1.0" encoding="utf-8"?>
<svg version="1.1" id="Layer_1" xmlns="http://www.w3.org/2000/svg" xmlns:xlink="http://www.w3.org/1999/xlink" x="0px" y="0px"
	 viewBox="0 0 17 17" style="enable-background:new 0 0 17 17;" xml:space="preserve">
<style type="text/css">
	.st0{fill:#0c1e7b;}
	.st1{enable-background:new    ;}
	.st2{fill:#FFFFFF;}
</style>
<g>
	<path class="st0" d="M17,13c0,2.2-1.8,4-4,4H4c-2.2,0-4-1.8-4-4V4c0-2.2,1.8-4,4-4h9c2.2,0,4,1.8,4,4V13z"/>
</g>
<g class="st1">
	<path class="st2" d="M2.9,12.2V4.3h1v6.9h3.9v0.9H2.9z"/>
	<path class="st2" d="M14.7,9.4l1,0.3c-0.2,0.9-0.6,1.5-1.2,2c-0.6,0.4-1.3,0.7-2.1,0.7c-0.8,0-1.5-0.2-2.1-0.5
		c-0.5-0.3-0.9-0.8-1.2-1.5C8.9,9.7,8.8,9,8.8,8.2c0-0.8,0.2-1.5,0.5-2.1C9.6,5.5,10,5,10.6,4.7c0.6-0.3,1.2-0.5,1.9-0.5
		c0.8,0,1.5,0.2,2,0.6c0.5,0.4,0.9,1,1.1,1.7l-1,0.2c-0.2-0.6-0.4-1-0.8-1.3c-0.3-0.3-0.8-0.4-1.3-0.4c-0.6,0-1.1,0.1-1.5,0.4
		s-0.7,0.7-0.9,1.2c-0.2,0.5-0.2,1-0.2,1.5c0,0.7,0.1,1.3,0.3,1.8c0.2,0.5,0.5,0.9,0.9,1.1c0.4,0.2,0.9,0.4,1.3,0.4
		c0.6,0,1.1-0.2,1.5-0.5C14.3,10.6,14.6,10.1,14.7,9.4z"/>
</g>
</svg>
