<?xml version="1.0" encoding="UTF-8"?>
<svg width="24px" height="24px" viewBox="0 0 24 24" version="1.1" xmlns="http://www.w3.org/2000/svg" xmlns:xlink="http://www.w3.org/1999/xlink">
    <!-- Generator: Sketch 64 (93537) - https://sketch.com -->
    <title>Help-blue</title>
    <desc>Created with Sketch.</desc>
    <g id="help" stroke="none" stroke-width="1" fill="none" fill-rule="evenodd">
        <g id="helpicon6-open" transform="translate(-1170.000000, -94.000000)">
            <g id="Group" transform="translate(1156.000000, 83.000000)">
                <g id="Help-blue" transform="translate(14.000000, 11.000000)">
                    <rect id="Rectangle" x="0" y="0" width="24" height="24"></rect>
                    <path d="M12,22 C17.5228475,22 22,17.5228475 22,12 C22,6.4771525 17.5228475,2 12,2 C6.4771525,2 2,6.4771525 2,12 C2,17.5228475 6.4771525,22 12,22 Z M12,24 C5.372583,24 0,18.627417 0,12 C0,5.372583 5.372583,0 12,0 C18.627417,0 24,5.372583 24,12 C24,18.627417 18.627417,24 12,24 Z" id="Shape" fill="#005D83" fill-rule="nonzero"></path>
                    <path d="M9.5,9 L8.5,9 C8.22385763,9 8,8.77614237 8,8.5 C8,6.56700338 9.56700338,5 11.5,5 L13.5,5 C15.4329966,5 17,6.56700338 17,8.5 L17,8.96514743 C17,10.6262284 15.8169188,12.051754 14.1842885,12.3578722 C13.4976041,12.4866255 13,13.0862017 13,13.7848526 L13,14.5 C13,14.7761424 12.7761424,15 12.5,15 L11.5,15 C11.2238576,15 11,14.7761424 11,14.5 L11,13.7848526 C11,12.1237716 12.1830812,10.698246 13.8157115,10.3921278 C14.5023959,10.2633745 15,9.66379825 15,8.96514743 L15,8.5 C15,7.67157288 14.3284271,7 13.5,7 L11.5,7 C10.6715729,7 10,7.67157288 10,8.5 C10,8.77614237 9.77614237,9 9.5,9 Z M11.5,17 L12.5,17 C12.7761424,17 13,17.2238576 13,17.5 L13,18.5 C13,18.7761424 12.7761424,19 12.5,19 L11.5,19 C11.2238576,19 11,18.7761424 11,18.5 L11,17.5 C11,17.2238576 11.2238576,17 11.5,17 Z" id="Shape" fill="#005D83" fill-rule="nonzero"></path>
                </g>
            </g>
        </g>
    </g>
</svg>