<?xml version="1.0" encoding="utf-8"?>
<!-- Generator: Adobe Illustrator 22.0.1, SVG Export Plug-In . SVG Version: 6.00 Build 0)  -->
<svg version="1.1" id="Layer_1" xmlns="http://www.w3.org/2000/svg" xmlns:xlink="http://www.w3.org/1999/xlink" x="0px" y="0px"
	 viewBox="0 0 1024 1023.8" style="enable-background:new 0 0 1024 1023.8;" xml:space="preserve">
<style type="text/css">
	.st0{fill:#047a9c;}
</style>
<path class="st0" d="M64,95.8l256.2,0V32c0-17.7,14.3-32,32-32c17.7,0,32,14.3,32,32v63.8h256V32c0-17.7,14.3-32,32-32
	c17.7,0,32,14.3,32,32v63.8H960c35.3,0,64,28.7,64,64v800c0,35.3-28.7,64-64,64H64c-35.3,0-64-28.7-64-64l0-800
	C0,124.4,28.7,95.8,64,95.8z M64,959.8l896,0v-800H704.2V192c0,17.7-14.3,32-32,32s-32-14.3-32-32v-32.2h-256V192
	c0,17.7-14.3,32-32,32s-32-14.3-32-32v-32.2H64V959.8L64,959.8L64,959.8z M288,511.8h-64c-17.7,0-32-14.3-32-32v-64
	c0-17.7,14.3-32,32-32h64c17.7,0,32,14.3,32,32v64C320,497.4,305.7,511.8,288,511.8z M288,767.8h-64c-17.7,0-32-14.3-32-32v-64
	c0-17.7,14.3-32,32-32h64c17.7,0,32,14.3,32,32v64C320,753.5,305.7,767.8,288,767.8L288,767.8z M480,639.8h64c17.7,0,32,14.3,32,32
	v64c0,17.7-14.3,32-32,32h-64c-17.7,0-32-14.3-32-32v-64C448,654.1,462.3,639.8,480,639.8z M480,383.8h64c17.7,0,32,14.3,32,32v64
	c0,17.7-14.3,32-32,32h-64c-17.7,0-32-14.3-32-32v-64C448,398.1,462.3,383.8,480,383.8z M736,383.8h64c17.7,0,32,14.3,32,32v64
	c0,17.7-14.3,32-32,32h-64c-17.7,0-32-14.3-32-32v-64C704,398.1,718.3,383.8,736,383.8z M736,639.8h64c17.7,0,32,14.3,32,32v64
	c0,17.7-14.3,32-32,32h-64c-17.7,0-32-14.3-32-32v-64C704,654.1,718.3,639.8,736,639.8z"/>
</svg>
