<?xml version="1.0" encoding="utf-8"?>
<!-- Generator: Adobe Illustrator 18.0.0, SVG Export Plug-In . SVG Version: 6.00 Build 0)  -->
<!DOCTYPE svg PUBLIC "-//W3C//DTD SVG 1.1//EN" "http://www.w3.org/Graphics/SVG/1.1/DTD/svg11.dtd">
<svg version="1.1" id="Layer_1" xmlns="http://www.w3.org/2000/svg" xmlns:xlink="http://www.w3.org/1999/xlink" x="0px" y="0px"
	 viewBox="0 0 26 19" enable-background="new 0 0 26 19" xml:space="preserve">
<g id="XMLID_4_">
	<g>
		<path fill="#818386" d="M24,14.5c0,0.8-0.7,1.5-1.5,1.5h-19C2.7,16,2,15.3,2,14.5v-13C2,0.7,2.7,0,3.5,0h19C23.3,0,24,0.7,24,1.5
			V14.5z"/>
		<rect x="4" y="2" fill="#FFFFFF" width="18" height="12"/>
	</g>
	<path fill="#818386" d="M0,18.2V17h26v1.2c0,0.4-0.3,0.8-0.8,0.8H0.8C0.3,19,0,18.7,0,18.2z"/>
	<g>
		<path fill="#707070" d="M11.4,11.1c-0.2,0.1-0.4,0-0.4-0.3V5.5c0-0.3,0.2-0.4,0.4-0.3l5.1,2.7c0.2,0.1,0.2,0.3,0,0.5L11.4,11.1z"
			/>
	</g>
</g>
</svg>
