<?xml version="1.0" encoding="utf-8"?>
<!-- Generator: Adobe Illustrator 18.0.0, SVG Export Plug-In . SVG Version: 6.00 Build 0)  -->
<!DOCTYPE svg PUBLIC "-//W3C//DTD SVG 1.1//EN" "http://www.w3.org/Graphics/SVG/1.1/DTD/svg11.dtd">
<svg version="1.1" id="Layer_1" xmlns="http://www.w3.org/2000/svg" xmlns:xlink="http://www.w3.org/1999/xlink" x="0px" y="0px"
	 viewBox="0 0 19 13" enable-background="new 0 0 19 13" xml:space="preserve">
<g>
	<g>
		<path fill="#7145A8" d="M8.7,7.8L3.3,5.9v4.3c0,1.3,2.9,2.8,6.4,2.8c3.5,0,6.4-1.5,6.4-2.8V5.9l-5.5,1.9C10.1,8,9.3,8,8.7,7.8z"/>
		<path fill="#A26FDE" d="M9.7,12c-3.2,0-5.3-1.3-5.4-1.8l0-2.9l4.1,1.4c0.4,0.2,0.9,0.2,1.3,0.2s0.8,0,1.3-0.2l4.1-1.4v2.9
			C14.9,10.7,12.9,12,9.7,12z"/>
	</g>
	<g>
		<path fill="#7145A8" d="M18.9,3.2c0-0.1-0.1-0.2-0.4-0.3l-8-2.8C10.1,0,9.3,0,8.7,0.1l-8,2.8c-0.5,0.2-0.5,0.5,0,0.6l8,2.8
			c0.5,0.2,1.3,0.2,1.9,0L18,3.7v7.3h1L18.9,3.2L18.9,3.2z"/>
		<path fill="#A26FDE" d="M9.7,5.5c-0.3,0-0.5,0-0.6-0.1L2.9,3.2l6.2-2.2C9.2,1,9.4,1,9.7,1s0.5,0,0.6,0.1l6.2,2.2l-6.2,2.2
			C10.2,5.4,10,5.5,9.7,5.5z"/>
	</g>
</g>
</svg>
