<?xml version="1.0" encoding="utf-8"?>
<!-- Generator: Adobe Illustrator 18.0.0, SVG Export Plug-In . SVG Version: 6.00 Build 0)  -->
<!DOCTYPE svg PUBLIC "-//W3C//DTD SVG 1.1//EN" "http://www.w3.org/Graphics/SVG/1.1/DTD/svg11.dtd">
<svg version="1.1" id="Layer_1" xmlns="http://www.w3.org/2000/svg" xmlns:xlink="http://www.w3.org/1999/xlink" x="0px" y="0px"
	 viewBox="0 0 19 13" enable-background="new 0 0 19 13" xml:space="preserve">
<g>
	<g>
		<path fill="#D0D0D0" d="M8.7,7.8L3.3,5.9v4.3c0,1.3,2.9,2.8,6.4,2.8c3.5,0,6.4-1.5,6.4-2.8V5.9l-5.5,1.9C10.1,8,9.3,8,8.7,7.8z"/>
	</g>
	<g>
		<path fill="#D0D0D0" d="M18.9,3.2c0-0.1-0.1-0.2-0.4-0.3l-8-2.8C10.1,0,9.3,0,8.7,0.1l-8,2.8c-0.5,0.2-0.5,0.5,0,0.6l8,2.8
			c0.5,0.2,1.3,0.2,1.9,0L18,3.7v7.3h1L18.9,3.2L18.9,3.2z"/>
	</g>
</g>
</svg>
