<?xml version="1.0" encoding="utf-8"?>
<!-- Generator: Adobe Illustrator 18.0.0, SVG Export Plug-In . SVG Version: 6.00 Build 0)  -->
<!DOCTYPE svg PUBLIC "-//W3C//DTD SVG 1.1//EN" "http://www.w3.org/Graphics/SVG/1.1/DTD/svg11.dtd">
<svg version="1.1" id="Layer_1" xmlns="http://www.w3.org/2000/svg" xmlns:xlink="http://www.w3.org/1999/xlink" x="0px" y="0px"
	 viewBox="0 0 18 18" enable-background="new 0 0 18 18" xml:space="preserve">
<g>
	<g>
		<circle fill="#D0D0D0" cx="9" cy="9" r="8.8"/>
	</g>
	<g>
		<path fill="#FFFFFF" d="M7.2,12.7V6.3h2.4c0.4,0,0.8,0,1,0.1c0.3,0.1,0.6,0.2,0.8,0.3c0.2,0.1,0.4,0.4,0.5,0.6
			c0.1,0.3,0.2,0.6,0.2,0.9c0,0.5-0.2,1-0.5,1.4c-0.3,0.4-1,0.6-1.9,0.6H8v2.6H7.2z M8,9.3h1.7c0.5,0,0.9-0.1,1.2-0.3
			c0.2-0.2,0.3-0.5,0.3-0.9c0-0.3-0.1-0.5-0.2-0.7c-0.1-0.2-0.3-0.3-0.5-0.4C10.3,7.1,10.1,7,9.7,7H8V9.3z"/>
	</g>
</g>
</svg>
