<svg xmlns="http://www.w3.org/2000/svg" width="24" height="24" viewBox="0 0 24 24">
    <g fill="none" fill-rule="evenodd">
        <path d="M0 0H24V24H0z"/>
        <path fill="#5A5E5E" fill-rule="nonzero" d="M12 22c5.523 0 10-4.477 10-10S17.523 2 12 2 2 6.477 2 12s4.477 10 10 10zm0 2C5.373 24 0 18.627 0 12S5.373 0 12 0s12 5.373 12 12-5.373 12-12 12z"/>
        <path fill="#5A5E5E" fill-rule="nonzero" d="M9.5 9h-1c-.276 0-.5-.224-.5-.5C8 6.567 9.567 5 11.5 5h2C15.433 5 17 6.567 17 8.5v.465c0 1.661-1.183 3.087-2.816 3.393-.686.129-1.184.728-1.184 1.427v.715c0 .276-.224.5-.5.5h-1c-.276 0-.5-.224-.5-.5v-.715c0-1.661 1.183-3.087 2.816-3.393.686-.129 1.184-.728 1.184-1.427V8.5c0-.828-.672-1.5-1.5-1.5h-2c-.828 0-1.5.672-1.5 1.5 0 .276-.224.5-.5.5zm2 8h1c.276 0 .5.224.5.5v1c0 .276-.224.5-.5.5h-1c-.276 0-.5-.224-.5-.5v-1c0-.276.224-.5.5-.5z"/>
    </g>
</svg>
