<?xml version="1.0" encoding="utf-8"?>
<!-- Generator: Adobe Illustrator 18.0.0, SVG Export Plug-In . SVG Version: 6.00 Build 0)  -->
<!DOCTYPE svg PUBLIC "-//W3C//DTD SVG 1.1//EN" "http://www.w3.org/Graphics/SVG/1.1/DTD/svg11.dtd">
<svg version="1.1" id="Layer_1" xmlns="http://www.w3.org/2000/svg" xmlns:xlink="http://www.w3.org/1999/xlink" x="0px" y="0px"
	 viewBox="0 0 15 13" enable-background="new 0 0 15 13" xml:space="preserve">
<g>
	<path fill="#007FA9" d="M15,9c0,2.2-1.8,4-4,4H4c-2.2,0-4-1.8-4-4V4c0-2.2,1.8-4,4-4h7c2.2,0,4,1.8,4,4V9z"/>
	<g>
		<polygon fill="#FFFFFF" points="6,4 6,3 2.5,3 2.5,4 3.5,4 3.5,9 2.5,9 2.5,10 6,10 6,9 5,9 5,4 		"/>
		<path fill="#FFFFFF" d="M11.5,10H13l-2.4-7H9l-2.4,7h1.5l0.3-1h2.8L11.5,10z M8.7,8l1.1-3.9L10.9,8H8.7z"/>
	</g>
</g>
</svg>
