<?xml version="1.0" encoding="utf-8"?>
<!-- Generator: Adobe Illustrator 18.0.0, SVG Export Plug-In . SVG Version: 6.00 Build 0)  -->
<!DOCTYPE svg PUBLIC "-//W3C//DTD SVG 1.1//EN" "http://www.w3.org/Graphics/SVG/1.1/DTD/svg11.dtd">
<svg version="1.1" id="Layer_1" xmlns="http://www.w3.org/2000/svg" xmlns:xlink="http://www.w3.org/1999/xlink" x="0px" y="0px"
	 viewBox="0 0 8 12" enable-background="new 0 0 8 12" xml:space="preserve">
<path fill="#707070" d="M7.9,0C7.8,0,7.7,0,7.6,0.1L2.1,5.7c0,0-0.1,0.1-0.1,0.1v0V0.5c0-0.1,0-0.3-0.1-0.4C1.8,0,1.6,0,1.5,0h-1
	C0.4,0,0.2,0,0.1,0.1C0,0.2,0,0.4,0,0.5v11c0,0.1,0,0.3,0.1,0.4C0.2,12,0.4,12,0.5,12h1c0.1,0,0.3,0,0.4-0.1C2,11.8,2,11.6,2,11.5
	V6.2c0,0.1,0.1,0.1,0.1,0.1l5.5,5.5C7.7,12,7.8,12,7.9,12C8,12,8,11.9,8,11.8V0.3C8,0.1,8,0,7.9,0z"/>
</svg>
