<?xml version="1.0" encoding="utf-8"?>
<!-- Generator: Adobe Illustrator 18.0.0, SVG Export Plug-In . SVG Version: 6.00 Build 0)  -->
<!DOCTYPE svg PUBLIC "-//W3C//DTD SVG 1.1//EN" "http://www.w3.org/Graphics/SVG/1.1/DTD/svg11.dtd">
<svg version="1.1" id="Layer_1" xmlns="http://www.w3.org/2000/svg" xmlns:xlink="http://www.w3.org/1999/xlink" x="0px" y="0px"
	 viewBox="0 0 12 12" enable-background="new 0 0 12 12" xml:space="preserve">
<g>
	<path fill="#7145A8" d="M6,0C2.7,0,0,2.7,0,6c0,3.3,2.7,6,6,6c3.3,0,6-2.7,6-6C12,2.7,9.3,0,6,0z M6,9.5L2.5,6L6,2.5L9.5,6L6,9.5z"
		/>
	<g>
		<path fill="#A26FDE" d="M6,11c-2.8,0-5-2.2-5-5s2.2-5,5-5s5,2.2,5,5S8.8,11,6,11z M1.1,6L6,10.9L10.9,6L6,1.1L1.1,6z"/>
	</g>
</g>
</svg>
