<?xml version="1.0" encoding="utf-8"?>
<!-- Generator: Adobe Illustrator 18.0.0, SVG Export Plug-In . SVG Version: 6.00 Build 0)  -->
<!DOCTYPE svg PUBLIC "-//W3C//DTD SVG 1.1//EN" "http://www.w3.org/Graphics/SVG/1.1/DTD/svg11.dtd">
<svg version="1.1" id="Layer_1" xmlns="http://www.w3.org/2000/svg" xmlns:xlink="http://www.w3.org/1999/xlink" x="0px" y="0px"
	 viewBox="0 0 12 12" enable-background="new 0 0 12 12" xml:space="preserve">
<g>
	<path fill="#D0D0D0" d="M7.9,10C8.2,9.6,8.1,8.9,7.7,8c0.2-0.5,0.5-1.6,2.7-3.5C11,5,11.5,5.2,11.9,4.8c0.4-0.4-0.3-1.8-1.6-3.1
		C9,0.4,7.6-0.3,7.2,0.1C6.8,0.5,7,1,7.4,1.7C5.5,3.8,4.5,4.1,4,4.3C3.1,3.9,2.4,3.8,2,4.1c-0.6,0.6,0,2,1.2,3.4L0,11.7l0.1,0.2
		L0.3,12l4.2-3.2C5.9,10,7.3,10.6,7.9,10z"/>
</g>
</svg>
