<?xml version="1.0" encoding="utf-8"?>
<!-- Generator: Adobe Illustrator 18.0.0, SVG Export Plug-In . SVG Version: 6.00 Build 0)  -->
<!DOCTYPE svg PUBLIC "-//W3C//DTD SVG 1.1//EN" "http://www.w3.org/Graphics/SVG/1.1/DTD/svg11.dtd">
<svg version="1.1" id="Layer_1" xmlns="http://www.w3.org/2000/svg" xmlns:xlink="http://www.w3.org/1999/xlink" x="0px" y="0px"
	 viewBox="0 0 17 17" enable-background="new 0 0 17 17" xml:space="preserve">
<g>
	<path fill="#0C1E7B" d="M17,13c0,2.2-1.8,4-4,4H4c-2.2,0-4-1.8-4-4V4c0-2.2,1.8-4,4-4h9c2.2,0,4,1.8,4,4V13z"/>
</g>
<g>
	<path fill="#FFFFFF" d="M2.3,11.7V5.3h1.3l1.5,4.6c0.1,0.4,0.2,0.7,0.3,1c0.1-0.2,0.2-0.6,0.3-1l1.5-4.5h1.1v6.4H7.7V6.3l-1.9,5.4
		H5L3.2,6.2v5.5H2.3z"/>
	<path fill="#FFFFFF" d="M9.6,9.7l0.8-0.1c0,0.3,0.1,0.6,0.3,0.8c0.1,0.2,0.4,0.4,0.6,0.5c0.3,0.1,0.6,0.2,1,0.2
		c0.3,0,0.6,0,0.9-0.1c0.2-0.1,0.4-0.2,0.6-0.4c0.1-0.2,0.2-0.4,0.2-0.6c0-0.2-0.1-0.4-0.2-0.5c-0.1-0.2-0.3-0.3-0.6-0.4
		C13,9,12.6,8.9,12,8.8c-0.6-0.1-1-0.3-1.2-0.4C10.4,8.2,10.2,8,10,7.7C9.9,7.5,9.8,7.2,9.8,6.9c0-0.3,0.1-0.6,0.3-0.9
		c0.2-0.3,0.5-0.5,0.8-0.6c0.4-0.1,0.7-0.2,1.2-0.2c0.5,0,0.9,0.1,1.3,0.2c0.4,0.2,0.6,0.4,0.8,0.7c0.2,0.3,0.3,0.6,0.3,1l-0.8,0.1
		c0-0.4-0.2-0.7-0.4-0.9C13,6,12.6,5.9,12.1,5.9c-0.5,0-0.9,0.1-1.1,0.3c-0.2,0.2-0.4,0.4-0.4,0.7c0,0.2,0.1,0.4,0.2,0.6
		c0.2,0.1,0.6,0.3,1.3,0.5c0.7,0.2,1.2,0.3,1.4,0.4C14,8.5,14.3,8.7,14.4,9c0.2,0.3,0.3,0.6,0.3,0.9c0,0.3-0.1,0.7-0.3,1
		c-0.2,0.3-0.5,0.5-0.8,0.7c-0.4,0.2-0.8,0.3-1.2,0.3c-0.6,0-1.1-0.1-1.5-0.3c-0.4-0.2-0.7-0.4-0.9-0.8C9.7,10.5,9.6,10.1,9.6,9.7z"
		/>
</g>
</svg>
