<svg xmlns="http://www.w3.org/2000/svg" width="24" height="24" viewBox="0 0 24 24">
    <g fill="none" fill-rule="evenodd">
        <path d="M0 0H24V24H0z"/>
        <path fill="#6A7070" d="M19 1c.552 0 1 .448 1 1v6h.5c1.933 0 3.5 1.567 3.5 3.5V19c0 1.105-.895 2-2 2h-2v1c0 .552-.448 1-1 1H5c-.552 0-1-.448-1-1v-1H2c-1.105 0-2-.895-2-2v-7.5C0 9.567 1.567 8 3.5 8H4V2c0-.552.448-1 1-1h14zm-1 18H6v2h12v-2zM4 10h-.5c-.828 0-1.5.672-1.5 1.5V19h2v-1c0-.552.448-1 1-1h14c.552 0 1 .448 1 1v1h2v-7.5c0-.828-.672-1.5-1.5-1.5H20v3c0 .552-.448 1-1 1H5c-.552 0-1-.448-1-1v-3zm14-7H6v9h12V3z"/>
    </g>
</svg>
