<?xml version="1.0" encoding="utf-8"?>
<!-- Generator: Adobe Illustrator 18.0.0, SVG Export Plug-In . SVG Version: 6.00 Build 0)  -->
<!DOCTYPE svg PUBLIC "-//W3C//DTD SVG 1.1//EN" "http://www.w3.org/Graphics/SVG/1.1/DTD/svg11.dtd">
<svg version="1.1" id="Layer_1" xmlns="http://www.w3.org/2000/svg" xmlns:xlink="http://www.w3.org/1999/xlink" x="0px" y="0px"
	 viewBox="0 0 8 12" enable-background="new 0 0 8 12" xml:space="preserve">
<path fill="#D0D0D0" d="M0.1,0c0.1,0,0.2,0,0.2,0.1l5.5,5.5c0,0,0.1,0.1,0.1,0.1v0V0.5c0-0.1,0-0.3,0.1-0.4C6.2,0,6.4,0,6.5,0h1
	c0.1,0,0.3,0,0.4,0.1C8,0.2,8,0.4,8,0.5v11c0,0.1,0,0.3-0.1,0.4C7.8,12,7.6,12,7.5,12h-1c-0.1,0-0.3,0-0.4-0.1C6,11.8,6,11.6,6,11.5
	V6.2c0,0.1-0.1,0.1-0.1,0.1l-5.5,5.5C0.3,12,0.2,12,0.1,12C0,12,0,11.9,0,11.8V0.3C0,0.1,0,0,0.1,0z"/>
</svg>
