<svg xmlns="http://www.w3.org/2000/svg" width="17" height="23" viewBox="0 0 17 23">
    <g fill="none" fill-rule="evenodd">
        <path fill="#9E007E" d="M2.267 4v3.353h12.466V4H15a2 2 0 0 1 2 2v15a2 2 0 0 1-2 2H2a2 2 0 0 1-2-2V6a2 2 0 0 1 2-2h.267z"/>
        <path fill="#9E007E" d="M5.778 2.9C6.035 1.53 7.156.5 8.5.5s2.465 1.03 2.722 2.4H13.5v3.6h-10V2.9h2.278zM8.5 4.1c.614 0 1.111-.537 1.111-1.2 0-.663-.497-1.2-1.111-1.2s-1.111.537-1.111 1.2c0 .663.497 1.2 1.111 1.2z"/>
        <path stroke="#FFF" d="M5 16.375L7.631 19c3.26-4.093 5.049-6.427 5.369-7"/>
    </g>
</svg>
