<?xml version="1.0" encoding="utf-8"?>
<!-- Generator: Adobe Illustrator 18.0.0, SVG Export Plug-In . SVG Version: 6.00 Build 0)  -->
<!DOCTYPE svg PUBLIC "-//W3C//DTD SVG 1.1//EN" "http://www.w3.org/Graphics/SVG/1.1/DTD/svg11.dtd">
<svg version="1.1" id="Layer_1" xmlns="http://www.w3.org/2000/svg" xmlns:xlink="http://www.w3.org/1999/xlink" x="0px" y="0px"
	 viewBox="0 0 12 12" enable-background="new 0 0 12 12" xml:space="preserve">
<g>
	<path fill="#C45118" d="M7.9,10C8.2,9.6,8.1,8.9,7.7,8c0.2-0.5,0.5-1.6,2.7-3.5C11,5,11.5,5.2,11.9,4.8c0.4-0.4-0.3-1.8-1.6-3.1
		C9,0.4,7.6-0.3,7.2,0.1C6.8,0.5,7,1,7.4,1.7C5.5,3.8,4.5,4.1,4,4.3C3.1,3.9,2.4,3.8,2,4.1c-0.6,0.6,0,2,1.2,3.4L0,11.7l0.1,0.2
		L0.3,12l4.2-3.2C5.9,10,7.3,10.6,7.9,10z"/>
	<path fill="#FC712C" d="M7.1,9.2c-0.4-0.1-1-0.4-1.9-1.1L4.6,7.5L4.2,7.8l0.3-0.4L3.9,6.8C3.1,5.9,2.9,5.2,2.8,4.9
		C3,5,3.2,5,3.5,5.2l0.4,0.2l0.4-0.1c0.9-0.3,2-0.9,3.9-2.9l0.5-0.6L8.6,1.6c0.3,0.2,0.7,0.5,1,0.9c0.4,0.4,0.7,0.7,0.9,1l-0.2-0.1
		L9.7,3.8C7.3,6,6.9,7.2,6.7,7.7L6.6,8.1l0.2,0.4C7,8.8,7,9,7.1,9.2z"/>
</g>
</svg>
