<?xml version="1.0" encoding="utf-8"?>
<!-- Generator: Adobe Illustrator 18.0.0, SVG Export Plug-In . SVG Version: 6.00 Build 0)  -->
<!DOCTYPE svg PUBLIC "-//W3C//DTD SVG 1.1//EN" "http://www.w3.org/Graphics/SVG/1.1/DTD/svg11.dtd">
<svg version="1.1" id="Layer_1" xmlns="http://www.w3.org/2000/svg" xmlns:xlink="http://www.w3.org/1999/xlink" x="0px" y="0px"
	 viewBox="0 0 12.1 12" enable-background="new 0 0 12.1 12" xml:space="preserve">
<path fill="#707070" d="M5.9,5.7c0,0,0.1,0.1,0.1,0.1V0.3C6,0.1,6,0,6.1,0c0.1,0,0.2,0,0.2,0.1l5.5,5.5C12,5.8,12,5.9,12,6
	c0,0.1,0,0.3-0.1,0.4l-5.5,5.5C6.3,12,6.2,12,6.1,12C6,12,6,11.9,6,11.8V6.2c0,0.1-0.1,0.1-0.1,0.1l-5.5,5.5C0.3,12,0.2,12,0.1,12
	C0,12,0,11.9,0,11.8V0.3C0,0.1,0,0,0.1,0c0.1,0,0.2,0,0.2,0.1L5.9,5.7z"/>
</svg>
