<?xml version="1.0" encoding="utf-8"?>
<!DOCTYPE svg PUBLIC "-//W3C//DTD SVG 1.1//EN" "http://www.w3.org/Graphics/SVG/1.1/DTD/svg11.dtd">
<svg xmlns="http://www.w3.org/2000/svg" xmlns:xlink="http://www.w3.org/1999/xlink" version="1.1" x="0" y="0" viewBox="0 0 18 18" enable-background="new 0 0 18 18" xml:space="preserve">
	<path fill="#FFFFFF" d="M11.8 14.9c0.5-0.5 0.4-1.7-0.3-3 0.3-0.8 0.8-2.3 4-5.1 0.9 0.6 1.8 0.9 2.3 0.4 0.5-0.6-0.5-2.7-2.4-4.6s-4-3.1-4.6-2.4c-0.6 0.6-0.4 1.4 0.3 2.3C8.3 5.7 6.7 6.2 6 6.5 4.6 5.8 3.5 5.7 3 6.2c-0.9 0.9 0 3 1.8 5L0 17.5l0.1 0.4L0.5 18l6.3-4.8C8.9 15 10.9 15.8 11.8 14.9z"/>
</svg>
