<?xml version="1.0" encoding="utf-8"?>
<!-- Generator: Adobe Illustrator 24.2.1, SVG Export Plug-In . SVG Version: 6.00 Build 0)  -->
<svg version="1.1" id="Ebene_1" xmlns="http://www.w3.org/2000/svg" xmlns:xlink="http://www.w3.org/1999/xlink" x="0px" y="0px"
	 viewBox="0 0 32.4 32.4" style="enable-background:new 0 0 32.4 32.4;" xml:space="preserve">
<style type="text/css">
	.st0{fill:#DA1F3D;}
</style>
<path class="st0" d="M20.1,1.8C20.2,1,19.6,0.2,18.8,0c-0.8-0.1-1.6,0.4-1.8,1.3l0,0h0l0,9.9L20.1,1.8"/>
<path class="st0" d="M24.3,3.7c0.4-0.8,0.1-1.7-0.7-2.1c-0.8-0.4-1.7-0.1-2.1,0.7l0,0c0,0,0,0,0,0l-3.1,9.4L24.3,3.7"/>
<path class="st0" d="M27.8,6.8c0.6-0.6,0.6-1.6,0-2.2c-0.6-0.6-1.6-0.6-2.2,0l0,0c0,0,0,0,0,0l-5.8,8L27.8,6.8"/>
<path class="st0" d="M30.1,10.8c0.8-0.4,1.1-1.3,0.7-2.1c-0.4-0.8-1.3-1.1-2.1-0.7l0,0c0,0,0,0,0,0l-8,5.8L30.1,10.8"/>
<path class="st0" d="M31.1,15.4c0.8-0.1,1.4-0.9,1.3-1.8c-0.1-0.8-0.9-1.4-1.8-1.3l0,0c0,0,0,0,0,0l-9.4,3.1L31.1,15.4"/>
<path class="st0" d="M30.6,20.1c0.8,0.1,1.6-0.4,1.8-1.3c0.1-0.8-0.4-1.6-1.3-1.8l0,0v0l-9.9,0L30.6,20.1"/>
<path class="st0" d="M28.7,24.3c0.8,0.4,1.7,0.1,2.1-0.7c0.4-0.8,0.1-1.7-0.7-2.1l0,0c0,0,0,0,0,0l-9.4-3.1L28.7,24.3"/>
<path class="st0" d="M25.6,27.8c0.6,0.6,1.6,0.6,2.2,0c0.6-0.6,0.6-1.6,0-2.2l0,0c0,0,0,0,0,0l-8-5.8L25.6,27.8"/>
<path class="st0" d="M21.6,30.1c0.4,0.8,1.3,1.1,2.1,0.7c0.8-0.4,1.1-1.3,0.7-2.1l0,0c0,0,0,0,0,0l-5.8-8L21.6,30.1"/>
<path class="st0" d="M17,31.1c0.1,0.8,0.9,1.4,1.8,1.3c0.8-0.1,1.4-0.9,1.3-1.8l0,0c0,0,0,0,0,0L17,21.2L17,31.1"/>
<path class="st0" d="M12.3,30.6c-0.1,0.8,0.4,1.6,1.3,1.8c0.8,0.1,1.6-0.4,1.8-1.3l0,0c0,0,0,0,0,0l0-9.9L12.3,30.6"/>
<path class="st0" d="M8.1,28.7c-0.4,0.8-0.1,1.7,0.7,2.1c0.8,0.4,1.7,0.1,2.1-0.7l0,0c0,0,0,0,0,0l3.1-9.4L8.1,28.7"/>
<path class="st0" d="M4.6,25.6c-0.6,0.6-0.6,1.6,0,2.2c0.6,0.6,1.6,0.6,2.2,0l0,0c0,0,0,0,0,0l5.8-8L4.6,25.6"/>
<path class="st0" d="M2.3,21.6c-0.8,0.4-1.1,1.3-0.7,2.1c0.4,0.8,1.3,1.1,2.1,0.7l0,0c0,0,0,0,0,0l8-5.8L2.3,21.6"/>
<path class="st0" d="M1.3,17c-0.8,0.1-1.4,0.9-1.3,1.8c0.1,0.8,0.9,1.4,1.8,1.3l0,0c0,0,0,0,0,0l9.4-3.1L1.3,17"/>
<path class="st0" d="M1.8,12.3c-0.8-0.1-1.6,0.4-1.8,1.3c-0.1,0.8,0.4,1.6,1.3,1.8l0,0c0,0,0,0,0,0l9.9,0L1.8,12.3"/>
<path class="st0" d="M3.7,8.1C2.9,7.7,2,8,1.6,8.8c-0.4,0.8-0.1,1.7,0.7,2.1l0,0c0,0,0,0,0,0l9.4,3.1L3.7,8.1"/>
<path class="st0" d="M6.8,4.6C6.2,4,5.2,4,4.6,4.6C4,5.2,4,6.2,4.6,6.8l0,0c0,0,0,0,0,0l8,5.8L6.8,4.6"/>
<path class="st0" d="M10.8,2.3c-0.4-0.8-1.3-1.1-2.1-0.7C8,2,7.7,2.9,8.1,3.7l0,0c0,0,0,0,0,0l5.8,8L10.8,2.3"/>
<path class="st0" d="M15.4,1.3c-0.1-0.8-0.9-1.4-1.8-1.3c-0.8,0.1-1.4,0.9-1.3,1.8l0,0c0,0,0,0,0,0l3.1,9.4L15.4,1.3"/>
</svg>
